<svg width="149" height="93" viewBox="0 0 149 93" fill="none" xmlns="http://www.w3.org/2000/svg">
<path fill-rule="evenodd" clip-rule="evenodd" d="M75.1354 0C99.5889 0 119.419 20.6871 119.419 46.1972C119.419 71.7074 99.5889 92.3945 75.1354 92.3945C50.6819 92.3945 30.8517 71.7074 30.8517 46.1972C30.8517 20.6871 50.6819 0 75.1354 0Z" fill="#F6C549"/>
<path fill-rule="evenodd" clip-rule="evenodd" d="M75.1354 12.5742C93.2491 12.5742 107.938 27.7529 107.938 46.4704C107.938 65.1879 93.2491 80.3666 75.1354 80.3666C57.0217 80.3666 42.3326 65.1879 42.3326 46.4704C42.3326 27.7529 57.0217 12.5742 75.1354 12.5742Z" fill="white"/>
<path d="M1.248 56.5605C0.906667 56.5605 0.608 56.4432 0.352 56.2085C0.117333 55.9739 0 55.6752 0 55.3125V32.8165C0 32.4752 0.117333 32.1872 0.352 31.9525C0.608 31.6965 0.906667 31.5685 1.248 31.5685C1.58933 31.5685 1.87733 31.6965 2.112 31.9525C2.368 32.1872 2.496 32.4752 2.496 32.8165V54.1925H15.008C15.3493 54.1925 15.6373 54.3099 15.872 54.5445C16.128 54.7579 16.256 55.0352 16.256 55.3765C16.256 55.7179 16.128 56.0059 15.872 56.2405C15.6373 56.4539 15.3493 56.5605 15.008 56.5605H1.248Z" fill="#4A4A4A"/>
<path d="M27.642 56.7205C25.9993 56.7205 24.5273 56.3365 23.226 55.5685C21.9247 54.7792 20.89 53.7125 20.122 52.3685C19.3753 51.0245 19.002 49.5099 19.002 47.8245C19.002 46.1179 19.386 44.5925 20.154 43.2485C20.9433 41.9045 22.01 40.8485 23.354 40.0805C24.698 39.2912 26.2127 38.8965 27.898 38.8965C29.5833 38.8965 31.0873 39.2912 32.41 40.0805C33.754 40.8485 34.81 41.9045 35.578 43.2485C36.3673 44.5925 36.7727 46.1179 36.794 47.8245L35.802 48.5925C35.802 50.1285 35.4393 51.5152 34.714 52.7525C34.01 53.9685 33.0393 54.9392 31.802 55.6645C30.586 56.3685 29.1993 56.7205 27.642 56.7205ZM27.898 54.4805C29.1353 54.4805 30.234 54.1925 31.194 53.6165C32.1753 53.0405 32.9433 52.2512 33.498 51.2485C34.074 50.2245 34.362 49.0832 34.362 47.8245C34.362 46.5445 34.074 45.4032 33.498 44.4005C32.9433 43.3979 32.1753 42.6085 31.194 42.0325C30.234 41.4352 29.1353 41.1365 27.898 41.1365C26.682 41.1365 25.5833 41.4352 24.602 42.0325C23.6207 42.6085 22.842 43.3979 22.266 44.4005C21.69 45.4032 21.402 46.5445 21.402 47.8245C21.402 49.0832 21.69 50.2245 22.266 51.2485C22.842 52.2512 23.6207 53.0405 24.602 53.6165C25.5833 54.1925 26.682 54.4805 27.898 54.4805ZM35.546 56.5605C35.1833 56.5605 34.8847 56.4539 34.65 56.2405C34.4153 56.0059 34.298 55.7072 34.298 55.3445V49.8725L34.906 47.3445L36.794 47.8245V55.3445C36.794 55.7072 36.6767 56.0059 36.442 56.2405C36.2073 56.4539 35.9087 56.5605 35.546 56.5605Z" fill="#4A4A4A"/>
<path d="M56.5942 56.5605C56.2316 56.5605 55.9329 56.4432 55.6982 56.2085C55.4636 55.9739 55.3463 55.6859 55.3463 55.3445V47.0245C55.3463 45.7019 55.0903 44.6139 54.5783 43.7605C54.0876 42.9072 53.4049 42.2672 52.5303 41.8405C51.6769 41.4139 50.7063 41.2005 49.6183 41.2005C48.5729 41.2005 47.6236 41.4032 46.7702 41.8085C45.9382 42.2139 45.2769 42.7685 44.7863 43.4725C44.2956 44.1765 44.0503 44.9765 44.0503 45.8725H42.2902C42.3329 44.5285 42.6956 43.3339 43.3783 42.2885C44.0609 41.2219 44.9676 40.3899 46.0983 39.7925C47.2289 39.1739 48.4876 38.8645 49.8742 38.8645C51.3889 38.8645 52.7436 39.1845 53.9383 39.8245C55.1329 40.4432 56.0716 41.3605 56.7542 42.5765C57.4582 43.7925 57.8102 45.2752 57.8102 47.0245V55.3445C57.8102 55.6859 57.6929 55.9739 57.4583 56.2085C57.2236 56.4432 56.9356 56.5605 56.5942 56.5605ZM42.8343 56.5605C42.4503 56.5605 42.1409 56.4539 41.9062 56.2405C41.6929 56.0059 41.5863 55.7072 41.5863 55.3445V40.3045C41.5863 39.9205 41.6929 39.6219 41.9062 39.4085C42.1409 39.1739 42.4503 39.0565 42.8343 39.0565C43.1969 39.0565 43.4849 39.1739 43.6982 39.4085C43.9329 39.6219 44.0503 39.9205 44.0503 40.3045V55.3445C44.0503 55.7072 43.9329 56.0059 43.6982 56.2405C43.4849 56.4539 43.1969 56.5605 42.8343 56.5605Z" fill="#4A4A4A"/>
<path d="M70.0905 56.5605C68.9598 56.5605 67.9465 56.2939 67.0505 55.7605C66.1758 55.2272 65.4825 54.5019 64.9705 53.5845C64.4585 52.6459 64.2025 51.5792 64.2025 50.3845V34.7365C64.2025 34.3739 64.3092 34.0752 64.5225 33.8405C64.7572 33.6059 65.0558 33.4885 65.4185 33.4885C65.7812 33.4885 66.0798 33.6059 66.3145 33.8405C66.5492 34.0752 66.6665 34.3739 66.6665 34.7365V50.3845C66.6665 51.4725 66.9865 52.3685 67.6265 53.0725C68.2665 53.7552 69.0878 54.0965 70.0905 54.0965H70.9545C71.2958 54.0965 71.5732 54.2139 71.7865 54.4485C71.9998 54.6832 72.1065 54.9819 72.1065 55.3445C72.1065 55.7072 71.9785 56.0059 71.7225 56.2405C71.4665 56.4539 71.1465 56.5605 70.7625 56.5605H70.0905ZM62.1225 41.8405C61.8025 41.8405 61.5358 41.7445 61.3225 41.5525C61.1092 41.3392 61.0025 41.0832 61.0025 40.7845C61.0025 40.4645 61.1092 40.2085 61.3225 40.0165C61.5358 39.8032 61.8025 39.6965 62.1225 39.6965H70.2825C70.6025 39.6965 70.8692 39.8032 71.0825 40.0165C71.2958 40.2085 71.4025 40.4645 71.4025 40.7845C71.4025 41.0832 71.2958 41.3392 71.0825 41.5525C70.8692 41.7445 70.6025 41.8405 70.2825 41.8405H62.1225Z" fill="#4A4A4A"/>
<path d="M84.0535 56.7205C82.3255 56.7205 80.7895 56.3472 79.4455 55.6005C78.1228 54.8325 77.0775 53.7766 76.3095 52.4325C75.5628 51.0885 75.1895 49.5525 75.1895 47.8245C75.1895 46.0752 75.5415 44.5392 76.2455 43.2165C76.9708 41.8725 77.9628 40.8165 79.2215 40.0485C80.4802 39.2805 81.9308 38.8965 83.5735 38.8965C85.1948 38.8965 86.6028 39.2699 87.7975 40.0165C89.0135 40.7419 89.9522 41.7552 90.6135 43.0565C91.2748 44.3579 91.6055 45.8405 91.6055 47.5045C91.6055 47.8459 91.4988 48.1232 91.2855 48.3365C91.0722 48.5285 90.7948 48.6245 90.4535 48.6245H76.8535V46.5765H90.7095L89.3335 47.5685C89.3548 46.3312 89.1308 45.2219 88.6615 44.2405C88.1922 43.2592 87.5202 42.4912 86.6455 41.9365C85.7922 41.3819 84.7682 41.1045 83.5735 41.1045C82.3575 41.1045 81.2908 41.3925 80.3735 41.9685C79.4562 42.5445 78.7415 43.3445 78.2295 44.3685C77.7388 45.3712 77.4935 46.5232 77.4935 47.8245C77.4935 49.1259 77.7708 50.2779 78.3255 51.2805C78.9015 52.2832 79.6802 53.0725 80.6615 53.6485C81.6428 54.2245 82.7735 54.5125 84.0535 54.5125C84.8215 54.5125 85.5895 54.3845 86.3575 54.1285C87.1468 53.8512 87.7762 53.5099 88.2455 53.1045C88.4802 52.9125 88.7468 52.8165 89.0455 52.8165C89.3442 52.7952 89.6002 52.8699 89.8135 53.0405C90.0908 53.2965 90.2295 53.5739 90.2295 53.8725C90.2508 54.1712 90.1335 54.4272 89.8775 54.6405C89.1735 55.2379 88.2775 55.7392 87.1895 56.1445C86.1015 56.5285 85.0562 56.7205 84.0535 56.7205Z" fill="#4A4A4A"/>
<path d="M96.7978 45.7765C96.8618 44.4539 97.2031 43.2699 97.8217 42.2245C98.4617 41.1792 99.2831 40.3579 100.286 39.7605C101.31 39.1632 102.44 38.8645 103.678 38.8645C104.659 38.8645 105.416 39.0032 105.95 39.2805C106.483 39.5579 106.686 39.9632 106.558 40.4965C106.472 40.8165 106.323 41.0299 106.11 41.1365C105.918 41.2432 105.672 41.2859 105.374 41.2645C105.096 41.2432 104.776 41.2219 104.414 41.2005C103.219 41.0939 102.152 41.2219 101.214 41.5845C100.296 41.9259 99.5604 42.4592 99.0058 43.1845C98.4724 43.9099 98.2057 44.7739 98.2057 45.7765H96.7978ZM96.9898 56.5605C96.6058 56.5605 96.3071 56.4539 96.0938 56.2405C95.8804 56.0272 95.7738 55.7285 95.7738 55.3445V40.2725C95.7738 39.8885 95.8804 39.5899 96.0938 39.3765C96.3071 39.1632 96.6058 39.0565 96.9898 39.0565C97.3738 39.0565 97.6724 39.1632 97.8857 39.3765C98.0991 39.5899 98.2057 39.8885 98.2057 40.2725V55.3445C98.2057 55.7285 98.0991 56.0272 97.8857 56.2405C97.6724 56.4539 97.3738 56.5605 96.9898 56.5605Z" fill="#4A4A4A"/>
<path d="M125.438 56.5605C125.075 56.5605 124.777 56.4432 124.542 56.2085C124.307 55.9739 124.19 55.6859 124.19 55.3445V47.0245C124.19 45.7019 123.934 44.6139 123.422 43.7605C122.931 42.9072 122.249 42.2672 121.374 41.8405C120.521 41.4139 119.55 41.2005 118.462 41.2005C117.417 41.2005 116.467 41.4032 115.614 41.8085C114.782 42.2139 114.121 42.7685 113.63 43.4725C113.139 44.1765 112.894 44.9765 112.894 45.8725H111.134C111.177 44.5285 111.539 43.3339 112.222 42.2885C112.905 41.2219 113.811 40.3899 114.942 39.7925C116.073 39.1739 117.331 38.8645 118.718 38.8645C120.233 38.8645 121.587 39.1845 122.782 39.8245C123.977 40.4432 124.915 41.3605 125.598 42.5765C126.302 43.7925 126.654 45.2752 126.654 47.0245V55.3445C126.654 55.6859 126.537 55.9739 126.302 56.2085C126.067 56.4432 125.779 56.5605 125.438 56.5605ZM111.678 56.5605C111.294 56.5605 110.985 56.4539 110.75 56.2405C110.537 56.0059 110.43 55.7072 110.43 55.3445V40.3045C110.43 39.9205 110.537 39.6219 110.75 39.4085C110.985 39.1739 111.294 39.0565 111.678 39.0565C112.041 39.0565 112.329 39.1739 112.542 39.4085C112.777 39.6219 112.894 39.9205 112.894 40.3045V55.3445C112.894 55.7072 112.777 56.0059 112.542 56.2405C112.329 56.4539 112.041 56.5605 111.678 56.5605Z" fill="#4A4A4A"/>
<path d="M139.798 56.7205C138.156 56.7205 136.684 56.3365 135.382 55.5685C134.081 54.7792 133.046 53.7125 132.278 52.3685C131.532 51.0245 131.158 49.5099 131.158 47.8245C131.158 46.1179 131.542 44.5925 132.31 43.2485C133.1 41.9045 134.166 40.8485 135.51 40.0805C136.854 39.2912 138.369 38.8965 140.054 38.8965C141.74 38.8965 143.244 39.2912 144.566 40.0805C145.91 40.8485 146.966 41.9045 147.734 43.2485C148.524 44.5925 148.929 46.1179 148.95 47.8245L147.958 48.5925C147.958 50.1285 147.596 51.5152 146.87 52.7525C146.166 53.9685 145.196 54.9392 143.958 55.6645C142.742 56.3685 141.356 56.7205 139.798 56.7205ZM140.054 54.4805C141.292 54.4805 142.39 54.1925 143.35 53.6165C144.332 53.0405 145.1 52.2512 145.654 51.2485C146.23 50.2245 146.518 49.0832 146.518 47.8245C146.518 46.5445 146.23 45.4032 145.654 44.4005C145.1 43.3979 144.332 42.6085 143.35 42.0325C142.39 41.4352 141.292 41.1365 140.054 41.1365C138.838 41.1365 137.74 41.4352 136.758 42.0325C135.777 42.6085 134.998 43.3979 134.422 44.4005C133.846 45.4032 133.558 46.5445 133.558 47.8245C133.558 49.0832 133.846 50.2245 134.422 51.2485C134.998 52.2512 135.777 53.0405 136.758 53.6165C137.74 54.1925 138.838 54.4805 140.054 54.4805ZM147.702 56.5605C147.34 56.5605 147.041 56.4539 146.806 56.2405C146.572 56.0059 146.454 55.7072 146.454 55.3445V49.8725L147.062 47.3445L148.95 47.8245V55.3445C148.95 55.7072 148.833 56.0059 148.598 56.2405C148.364 56.4539 148.065 56.5605 147.702 56.5605Z" fill="#4A4A4A"/>
</svg>
