<svg width="570" height="393" viewBox="0 0 570 393" fill="none" xmlns="http://www.w3.org/2000/svg">
<rect x="20" width="463" height="387" rx="10" fill="#F2F2F2"/>
<g filter="url(#filter0_d_640_114)">
<rect x="50" y="68" width="403" height="251" rx="20" fill="#F8F8F8" shape-rendering="crispEdges"/>
<path d="M92.6884 111.19L89.398 107.899C91.86 104.609 91.1887 99.9457 87.8987 97.4837C84.6086 95.0217 79.9457 95.693 77.4837 98.9831C75.0217 102.273 75.693 106.936 78.9831 109.398C81.6259 111.376 85.2558 111.376 87.8987 109.398L91.1904 112.69C91.604 113.103 92.2747 113.103 92.6883 112.69C93.102 112.276 93.102 111.605 92.6883 111.192L92.6884 111.19ZM83.4683 108.763C80.5443 108.763 78.1739 106.392 78.1739 103.468C78.1739 100.544 80.5443 98.1739 83.4683 98.1739C86.3923 98.1739 88.7627 100.544 88.7627 103.468C88.7596 106.391 86.391 108.76 83.4683 108.763Z" fill="black"/>
<rect x="117.999" y="84" width="319.001" height="41" rx="10" fill="#EEEEEE"/>
<path d="M130.855 109.112C130.071 109.112 129.445 108.925 128.979 108.552C128.521 108.179 128.321 107.647 128.377 106.956H129.007C128.96 107.451 129.1 107.847 129.427 108.146C129.763 108.435 130.253 108.58 130.897 108.58C131.559 108.58 132.087 108.435 132.479 108.146C132.871 107.847 133.067 107.465 133.067 106.998C133.067 106.718 132.987 106.485 132.829 106.298C132.67 106.111 132.474 105.962 132.241 105.85C132.007 105.738 131.681 105.607 131.261 105.458C130.794 105.299 130.411 105.145 130.113 104.996C129.823 104.847 129.576 104.641 129.371 104.38C129.175 104.109 129.077 103.769 129.077 103.358C129.077 102.957 129.193 102.602 129.427 102.294C129.66 101.977 129.982 101.734 130.393 101.566C130.803 101.389 131.261 101.3 131.765 101.3C132.465 101.3 133.048 101.482 133.515 101.846C133.981 102.201 134.215 102.672 134.215 103.26C134.215 103.381 134.21 103.475 134.201 103.54H133.585C133.594 103.493 133.599 103.419 133.599 103.316C133.599 102.868 133.417 102.509 133.053 102.238C132.698 101.958 132.25 101.818 131.709 101.818C131.13 101.818 130.649 101.958 130.267 102.238C129.893 102.509 129.707 102.877 129.707 103.344C129.707 103.652 129.791 103.909 129.959 104.114C130.127 104.31 130.332 104.469 130.575 104.59C130.827 104.702 131.163 104.833 131.583 104.982C132.049 105.141 132.418 105.29 132.689 105.43C132.969 105.57 133.207 105.766 133.403 106.018C133.599 106.27 133.697 106.592 133.697 106.984C133.697 107.637 133.431 108.155 132.899 108.538C132.376 108.921 131.695 109.112 130.855 109.112ZM135.7 105.192C135.84 104.408 136.115 103.722 136.526 103.134C136.946 102.546 137.464 102.093 138.08 101.776C138.696 101.459 139.358 101.3 140.068 101.3C140.861 101.3 141.5 101.496 141.986 101.888C142.48 102.28 142.788 102.779 142.91 103.386L143.26 101.398H143.89L142.532 109H141.916L142.266 106.998C141.939 107.614 141.458 108.123 140.824 108.524C140.189 108.916 139.47 109.112 138.668 109.112C137.744 109.112 137.002 108.841 136.442 108.3C135.891 107.749 135.616 107.007 135.616 106.074C135.616 105.794 135.644 105.5 135.7 105.192ZM142.588 105.192C142.634 104.912 142.658 104.665 142.658 104.45C142.658 103.657 142.42 103.027 141.944 102.56C141.468 102.084 140.838 101.846 140.054 101.846C139.438 101.846 138.868 101.981 138.346 102.252C137.832 102.513 137.398 102.896 137.044 103.4C136.698 103.904 136.465 104.501 136.344 105.192C136.297 105.5 136.274 105.761 136.274 105.976C136.274 106.788 136.502 107.423 136.96 107.88C137.426 108.328 138.061 108.552 138.864 108.552C139.452 108.552 140.007 108.417 140.53 108.146C141.062 107.866 141.505 107.474 141.86 106.97C142.224 106.457 142.466 105.864 142.588 105.192ZM146.799 99.704C146.669 99.704 146.561 99.6667 146.477 99.592C146.393 99.508 146.351 99.4007 146.351 99.27C146.351 99.0833 146.417 98.9293 146.547 98.808C146.678 98.6773 146.827 98.612 146.995 98.612C147.126 98.612 147.233 98.654 147.317 98.738C147.411 98.822 147.457 98.9293 147.457 99.06C147.457 99.2467 147.387 99.4007 147.247 99.522C147.117 99.6433 146.967 99.704 146.799 99.704ZM146.827 101.398L145.469 109H144.839L146.197 101.398H146.827ZM150.173 109.112C149.389 109.112 148.764 108.925 148.297 108.552C147.84 108.179 147.639 107.647 147.695 106.956H148.325C148.278 107.451 148.418 107.847 148.745 108.146C149.081 108.435 149.571 108.58 150.215 108.58C150.878 108.58 151.405 108.435 151.797 108.146C152.189 107.847 152.385 107.465 152.385 106.998C152.385 106.718 152.306 106.485 152.147 106.298C151.988 106.111 151.792 105.962 151.559 105.85C151.326 105.738 150.999 105.607 150.579 105.458C150.112 105.299 149.73 105.145 149.431 104.996C149.142 104.847 148.894 104.641 148.689 104.38C148.493 104.109 148.395 103.769 148.395 103.358C148.395 102.957 148.512 102.602 148.745 102.294C148.978 101.977 149.3 101.734 149.711 101.566C150.122 101.389 150.579 101.3 151.083 101.3C151.783 101.3 152.366 101.482 152.833 101.846C153.3 102.201 153.533 102.672 153.533 103.26C153.533 103.381 153.528 103.475 153.519 103.54H152.903C152.912 103.493 152.917 103.419 152.917 103.316C152.917 102.868 152.735 102.509 152.371 102.238C152.016 101.958 151.568 101.818 151.027 101.818C150.448 101.818 149.968 101.958 149.585 102.238C149.212 102.509 149.025 102.877 149.025 103.344C149.025 103.652 149.109 103.909 149.277 104.114C149.445 104.31 149.65 104.469 149.893 104.59C150.145 104.702 150.481 104.833 150.901 104.982C151.368 105.141 151.736 105.29 152.007 105.43C152.287 105.57 152.525 105.766 152.721 106.018C152.917 106.27 153.015 106.592 153.015 106.984C153.015 107.637 152.749 108.155 152.217 108.538C151.694 108.921 151.013 109.112 150.173 109.112ZM156.698 99.704C156.567 99.704 156.46 99.6667 156.376 99.592C156.292 99.508 156.25 99.4007 156.25 99.27C156.25 99.0833 156.315 98.9293 156.446 98.808C156.577 98.6773 156.726 98.612 156.894 98.612C157.025 98.612 157.132 98.654 157.216 98.738C157.309 98.822 157.356 98.9293 157.356 99.06C157.356 99.2467 157.286 99.4007 157.146 99.522C157.015 99.6433 156.866 99.704 156.698 99.704ZM156.726 101.398L155.368 109H154.738L156.096 101.398H156.726ZM160.071 109.112C159.287 109.112 158.662 108.925 158.195 108.552C157.738 108.179 157.537 107.647 157.593 106.956H158.223C158.177 107.451 158.317 107.847 158.643 108.146C158.979 108.435 159.469 108.58 160.113 108.58C160.776 108.58 161.303 108.435 161.695 108.146C162.087 107.847 162.283 107.465 162.283 106.998C162.283 106.718 162.204 106.485 162.045 106.298C161.887 106.111 161.691 105.962 161.457 105.85C161.224 105.738 160.897 105.607 160.477 105.458C160.011 105.299 159.628 105.145 159.329 104.996C159.04 104.847 158.793 104.641 158.587 104.38C158.391 104.109 158.293 103.769 158.293 103.358C158.293 102.957 158.41 102.602 158.643 102.294C158.877 101.977 159.199 101.734 159.609 101.566C160.02 101.389 160.477 101.3 160.981 101.3C161.681 101.3 162.265 101.482 162.731 101.846C163.198 102.201 163.431 102.672 163.431 103.26C163.431 103.381 163.427 103.475 163.417 103.54H162.801C162.811 103.493 162.815 103.419 162.815 103.316C162.815 102.868 162.633 102.509 162.269 102.238C161.915 101.958 161.467 101.818 160.925 101.818C160.347 101.818 159.866 101.958 159.483 102.238C159.11 102.509 158.923 102.877 158.923 103.344C158.923 103.652 159.007 103.909 159.175 104.114C159.343 104.31 159.549 104.469 159.791 104.59C160.043 104.702 160.379 104.833 160.799 104.982C161.266 105.141 161.635 105.29 161.905 105.43C162.185 105.57 162.423 105.766 162.619 106.018C162.815 106.27 162.913 106.592 162.913 106.984C162.913 107.637 162.647 108.155 162.115 108.538C161.593 108.921 160.911 109.112 160.071 109.112ZM167.03 109.112C166.246 109.112 165.621 108.925 165.154 108.552C164.697 108.179 164.496 107.647 164.552 106.956H165.182C165.136 107.451 165.276 107.847 165.602 108.146C165.938 108.435 166.428 108.58 167.072 108.58C167.735 108.58 168.262 108.435 168.654 108.146C169.046 107.847 169.242 107.465 169.242 106.998C169.242 106.718 169.163 106.485 169.004 106.298C168.846 106.111 168.65 105.962 168.416 105.85C168.183 105.738 167.856 105.607 167.436 105.458C166.97 105.299 166.587 105.145 166.288 104.996C165.999 104.847 165.752 104.641 165.546 104.38C165.35 104.109 165.252 103.769 165.252 103.358C165.252 102.957 165.369 102.602 165.602 102.294C165.836 101.977 166.158 101.734 166.568 101.566C166.979 101.389 167.436 101.3 167.94 101.3C168.64 101.3 169.224 101.482 169.69 101.846C170.157 102.201 170.39 102.672 170.39 103.26C170.39 103.381 170.386 103.475 170.376 103.54H169.76C169.77 103.493 169.774 103.419 169.774 103.316C169.774 102.868 169.592 102.509 169.228 102.238C168.874 101.958 168.426 101.818 167.884 101.818C167.306 101.818 166.825 101.958 166.442 102.238C166.069 102.509 165.882 102.877 165.882 103.344C165.882 103.652 165.966 103.909 166.134 104.114C166.302 104.31 166.508 104.469 166.75 104.59C167.002 104.702 167.338 104.833 167.758 104.982C168.225 105.141 168.594 105.29 168.864 105.43C169.144 105.57 169.382 105.766 169.578 106.018C169.774 106.27 169.872 106.592 169.872 106.984C169.872 107.637 169.606 108.155 169.074 108.538C168.552 108.921 167.87 109.112 167.03 109.112ZM176.257 101.3C176.901 101.3 177.447 101.426 177.895 101.678C178.353 101.921 178.693 102.252 178.917 102.672C179.151 103.083 179.267 103.545 179.267 104.058C179.267 104.282 179.249 104.487 179.211 104.674C179.155 105.01 179.099 105.262 179.043 105.43H172.477C172.44 105.729 172.421 105.943 172.421 106.074C172.421 106.877 172.664 107.493 173.149 107.922C173.635 108.351 174.246 108.566 174.983 108.566C175.721 108.566 176.374 108.384 176.943 108.02C177.522 107.647 177.933 107.143 178.175 106.508H178.833C178.535 107.283 178.035 107.913 177.335 108.398C176.645 108.874 175.828 109.112 174.885 109.112C173.952 109.112 173.201 108.841 172.631 108.3C172.071 107.759 171.791 107.021 171.791 106.088C171.791 105.799 171.819 105.5 171.875 105.192C172.015 104.399 172.295 103.708 172.715 103.12C173.135 102.532 173.649 102.084 174.255 101.776C174.871 101.459 175.539 101.3 176.257 101.3ZM178.539 104.94C178.605 104.669 178.637 104.394 178.637 104.114C178.637 103.377 178.399 102.812 177.923 102.42C177.457 102.028 176.864 101.832 176.145 101.832C175.613 101.832 175.1 101.949 174.605 102.182C174.111 102.415 173.681 102.765 173.317 103.232C172.953 103.699 172.701 104.268 172.561 104.94H178.539ZM180.485 108.468H184.755L184.657 109H179.673L179.771 108.468L185.091 101.93H181.017L181.115 101.398H185.903L185.805 101.93L180.485 108.468ZM193.096 108.258L197.086 101.398H197.772L193.278 109H192.62L190.828 101.398H191.5L193.096 108.258ZM201.178 109.112C200.226 109.112 199.461 108.837 198.882 108.286C198.313 107.735 198.028 106.989 198.028 106.046C198.028 105.187 198.219 104.394 198.602 103.666C198.994 102.938 199.535 102.364 200.226 101.944C200.917 101.515 201.687 101.3 202.536 101.3C203.152 101.3 203.698 101.426 204.174 101.678C204.65 101.921 205.019 102.275 205.28 102.742C205.551 103.199 205.686 103.741 205.686 104.366C205.686 105.225 205.49 106.018 205.098 106.746C204.706 107.474 204.165 108.053 203.474 108.482C202.793 108.902 202.027 109.112 201.178 109.112ZM201.262 108.566C201.99 108.566 202.639 108.375 203.208 107.992C203.787 107.609 204.235 107.101 204.552 106.466C204.879 105.831 205.042 105.141 205.042 104.394C205.042 103.563 204.795 102.929 204.3 102.49C203.805 102.051 203.185 101.832 202.438 101.832C201.701 101.832 201.047 102.023 200.478 102.406C199.909 102.789 199.465 103.302 199.148 103.946C198.831 104.581 198.672 105.267 198.672 106.004C198.672 106.835 198.915 107.469 199.4 107.908C199.895 108.347 200.515 108.566 201.262 108.566ZM208.143 106.97C208.106 107.157 208.087 107.343 208.087 107.53C208.087 107.866 208.181 108.104 208.367 108.244C208.554 108.375 208.862 108.44 209.291 108.44H210.131L210.033 109H209.081C208.521 109 208.106 108.893 207.835 108.678C207.574 108.463 207.443 108.109 207.443 107.614C207.443 107.399 207.462 107.185 207.499 106.97L208.395 101.944H207.247L207.345 101.398H208.493L208.829 99.466H209.473L209.137 101.398H211.377L211.279 101.944H209.039L208.143 106.97ZM213.389 103.036C213.688 102.457 214.098 102.014 214.621 101.706C215.153 101.398 215.783 101.244 216.511 101.244L216.385 101.902H216.189C215.442 101.902 214.784 102.117 214.215 102.546C213.646 102.966 213.277 103.657 213.109 104.618L212.325 109H211.695L213.053 101.398H213.683L213.389 103.036ZM221.251 101.3C221.895 101.3 222.441 101.426 222.889 101.678C223.347 101.921 223.687 102.252 223.911 102.672C224.145 103.083 224.261 103.545 224.261 104.058C224.261 104.282 224.243 104.487 224.205 104.674C224.149 105.01 224.093 105.262 224.037 105.43H217.471C217.434 105.729 217.415 105.943 217.415 106.074C217.415 106.877 217.658 107.493 218.143 107.922C218.629 108.351 219.24 108.566 219.977 108.566C220.715 108.566 221.368 108.384 221.937 108.02C222.516 107.647 222.927 107.143 223.169 106.508H223.827C223.529 107.283 223.029 107.913 222.329 108.398C221.639 108.874 220.822 109.112 219.879 109.112C218.946 109.112 218.195 108.841 217.625 108.3C217.065 107.759 216.785 107.021 216.785 106.088C216.785 105.799 216.813 105.5 216.869 105.192C217.009 104.399 217.289 103.708 217.709 103.12C218.129 102.532 218.643 102.084 219.249 101.776C219.865 101.459 220.533 101.3 221.251 101.3ZM223.533 104.94C223.599 104.669 223.631 104.394 223.631 104.114C223.631 103.377 223.393 102.812 222.917 102.42C222.451 102.028 221.858 101.832 221.139 101.832C220.607 101.832 220.094 101.949 219.599 102.182C219.105 102.415 218.675 102.765 218.311 103.232C217.947 103.699 217.695 104.268 217.555 104.94H223.533ZM231.135 103.036C231.434 102.457 231.844 102.014 232.367 101.706C232.899 101.398 233.529 101.244 234.257 101.244L234.131 101.902H233.935C233.188 101.902 232.53 102.117 231.961 102.546C231.392 102.966 231.023 103.657 230.855 104.618L230.071 109H229.441L230.799 101.398H231.429L231.135 103.036ZM238.998 101.3C239.642 101.3 240.188 101.426 240.636 101.678C241.093 101.921 241.434 102.252 241.658 102.672C241.891 103.083 242.008 103.545 242.008 104.058C242.008 104.282 241.989 104.487 241.952 104.674C241.896 105.01 241.84 105.262 241.784 105.43H235.218C235.18 105.729 235.162 105.943 235.162 106.074C235.162 106.877 235.404 107.493 235.89 107.922C236.375 108.351 236.986 108.566 237.724 108.566C238.461 108.566 239.114 108.384 239.684 108.02C240.262 107.647 240.673 107.143 240.916 106.508H241.574C241.275 107.283 240.776 107.913 240.076 108.398C239.385 108.874 238.568 109.112 237.626 109.112C236.692 109.112 235.941 108.841 235.372 108.3C234.812 107.759 234.532 107.021 234.532 106.088C234.532 105.799 234.56 105.5 234.616 105.192C234.756 104.399 235.036 103.708 235.456 103.12C235.876 102.532 236.389 102.084 236.996 101.776C237.612 101.459 238.279 101.3 238.998 101.3ZM241.28 104.94C241.345 104.669 241.378 104.394 241.378 104.114C241.378 103.377 241.14 102.812 240.664 102.42C240.197 102.028 239.604 101.832 238.886 101.832C238.354 101.832 237.84 101.949 237.346 102.182C236.851 102.415 236.422 102.765 236.058 103.232C235.694 103.699 235.442 104.268 235.302 104.94H241.28ZM243.366 105.192C243.506 104.399 243.786 103.708 244.206 103.12C244.626 102.532 245.139 102.084 245.746 101.776C246.362 101.459 247.024 101.3 247.734 101.3C248.686 101.3 249.423 101.538 249.946 102.014C250.478 102.49 250.748 103.129 250.758 103.932H250.1C250.09 103.288 249.862 102.779 249.414 102.406C248.975 102.023 248.382 101.832 247.636 101.832C247.085 101.832 246.558 101.958 246.054 102.21C245.55 102.453 245.116 102.831 244.752 103.344C244.388 103.848 244.14 104.464 244.01 105.192C243.954 105.481 243.926 105.761 243.926 106.032C243.926 106.853 244.159 107.483 244.626 107.922C245.102 108.351 245.708 108.566 246.446 108.566C247.192 108.566 247.85 108.379 248.42 108.006C248.998 107.633 249.409 107.119 249.652 106.466H250.324C250.025 107.269 249.526 107.913 248.826 108.398C248.126 108.874 247.3 109.112 246.348 109.112C245.414 109.112 244.668 108.846 244.108 108.314C243.557 107.773 243.282 107.035 243.282 106.102C243.282 105.813 243.31 105.509 243.366 105.192ZM256.611 101.244C257.367 101.244 257.978 101.454 258.445 101.874C258.912 102.285 259.145 102.896 259.145 103.708C259.145 103.96 259.117 104.24 259.061 104.548L258.277 109H257.661L258.445 104.59C258.492 104.291 258.515 104.044 258.515 103.848C258.515 103.176 258.328 102.667 257.955 102.322C257.582 101.967 257.059 101.79 256.387 101.79C255.566 101.79 254.866 102.056 254.287 102.588C253.708 103.111 253.326 103.881 253.139 104.898V104.884L252.411 109H251.781L253.615 98.64H254.245L253.475 103.022C253.792 102.443 254.226 102.005 254.777 101.706C255.337 101.398 255.948 101.244 256.611 101.244ZM265.166 101.3C265.81 101.3 266.356 101.426 266.804 101.678C267.261 101.921 267.602 102.252 267.826 102.672C268.059 103.083 268.176 103.545 268.176 104.058C268.176 104.282 268.157 104.487 268.12 104.674C268.064 105.01 268.008 105.262 267.952 105.43H261.386C261.348 105.729 261.33 105.943 261.33 106.074C261.33 106.877 261.572 107.493 262.058 107.922C262.543 108.351 263.154 108.566 263.892 108.566C264.629 108.566 265.282 108.384 265.852 108.02C266.43 107.647 266.841 107.143 267.084 106.508H267.742C267.443 107.283 266.944 107.913 266.244 108.398C265.553 108.874 264.736 109.112 263.794 109.112C262.86 109.112 262.109 108.841 261.54 108.3C260.98 107.759 260.7 107.021 260.7 106.088C260.7 105.799 260.728 105.5 260.784 105.192C260.924 104.399 261.204 103.708 261.624 103.12C262.044 102.532 262.557 102.084 263.164 101.776C263.78 101.459 264.447 101.3 265.166 101.3ZM267.448 104.94C267.513 104.669 267.546 104.394 267.546 104.114C267.546 103.377 267.308 102.812 266.832 102.42C266.365 102.028 265.772 101.832 265.054 101.832C264.522 101.832 264.008 101.949 263.514 102.182C263.019 102.415 262.59 102.765 262.226 103.232C261.862 103.699 261.61 104.268 261.47 104.94H267.448ZM270.948 103.036C271.246 102.457 271.657 102.014 272.18 101.706C272.712 101.398 273.342 101.244 274.07 101.244L273.944 101.902H273.748C273.001 101.902 272.343 102.117 271.774 102.546C271.204 102.966 270.836 103.657 270.668 104.618L269.884 109H269.254L270.612 101.398H271.242L270.948 103.036ZM274.428 105.192C274.568 104.399 274.848 103.708 275.268 103.12C275.688 102.532 276.201 102.084 276.808 101.776C277.424 101.459 278.087 101.3 278.796 101.3C279.748 101.3 280.485 101.538 281.008 102.014C281.54 102.49 281.811 103.129 281.82 103.932H281.162C281.153 103.288 280.924 102.779 280.476 102.406C280.037 102.023 279.445 101.832 278.698 101.832C278.147 101.832 277.62 101.958 277.116 102.21C276.612 102.453 276.178 102.831 275.814 103.344C275.45 103.848 275.203 104.464 275.072 105.192C275.016 105.481 274.988 105.761 274.988 106.032C274.988 106.853 275.221 107.483 275.688 107.922C276.164 108.351 276.771 108.566 277.508 108.566C278.255 108.566 278.913 108.379 279.482 108.006C280.061 107.633 280.471 107.119 280.714 106.466H281.386C281.087 107.269 280.588 107.913 279.888 108.398C279.188 108.874 278.362 109.112 277.41 109.112C276.477 109.112 275.73 108.846 275.17 108.314C274.619 107.773 274.344 107.035 274.344 106.102C274.344 105.813 274.372 105.509 274.428 105.192ZM287.673 101.244C288.429 101.244 289.041 101.454 289.507 101.874C289.974 102.285 290.207 102.896 290.207 103.708C290.207 103.96 290.179 104.24 290.123 104.548L289.339 109H288.723L289.507 104.59C289.554 104.291 289.577 104.044 289.577 103.848C289.577 103.176 289.391 102.667 289.017 102.322C288.644 101.967 288.121 101.79 287.449 101.79C286.628 101.79 285.928 102.056 285.349 102.588C284.771 103.111 284.388 103.881 284.201 104.898V104.884L283.473 109H282.843L284.677 98.64H285.307L284.537 103.022C284.855 102.443 285.289 102.005 285.839 101.706C286.399 101.398 287.011 101.244 287.673 101.244ZM296.228 101.3C296.872 101.3 297.418 101.426 297.866 101.678C298.323 101.921 298.664 102.252 298.888 102.672C299.121 103.083 299.238 103.545 299.238 104.058C299.238 104.282 299.219 104.487 299.182 104.674C299.126 105.01 299.07 105.262 299.014 105.43H292.448C292.411 105.729 292.392 105.943 292.392 106.074C292.392 106.877 292.635 107.493 293.12 107.922C293.605 108.351 294.217 108.566 294.954 108.566C295.691 108.566 296.345 108.384 296.914 108.02C297.493 107.647 297.903 107.143 298.146 106.508H298.804C298.505 107.283 298.006 107.913 297.306 108.398C296.615 108.874 295.799 109.112 294.856 109.112C293.923 109.112 293.171 108.841 292.602 108.3C292.042 107.759 291.762 107.021 291.762 106.088C291.762 105.799 291.79 105.5 291.846 105.192C291.986 104.399 292.266 103.708 292.686 103.12C293.106 102.532 293.619 102.084 294.226 101.776C294.842 101.459 295.509 101.3 296.228 101.3ZM298.51 104.94C298.575 104.669 298.608 104.394 298.608 104.114C298.608 103.377 298.37 102.812 297.894 102.42C297.427 102.028 296.835 101.832 296.116 101.832C295.584 101.832 295.071 101.949 294.576 102.182C294.081 102.415 293.652 102.765 293.288 103.232C292.924 103.699 292.672 104.268 292.532 104.94H298.51ZM300.204 109.042C300.073 109.042 299.966 109.005 299.882 108.93C299.798 108.846 299.756 108.739 299.756 108.608C299.756 108.421 299.821 108.267 299.952 108.146C300.083 108.015 300.237 107.95 300.414 107.95C300.545 107.95 300.652 107.992 300.736 108.076C300.82 108.151 300.862 108.253 300.862 108.384C300.862 108.571 300.797 108.729 300.666 108.86C300.535 108.981 300.381 109.042 300.204 109.042ZM302.296 109.042C302.165 109.042 302.058 109.005 301.974 108.93C301.89 108.846 301.848 108.739 301.848 108.608C301.848 108.421 301.913 108.267 302.044 108.146C302.174 108.015 302.328 107.95 302.506 107.95C302.636 107.95 302.744 107.992 302.828 108.076C302.912 108.151 302.954 108.253 302.954 108.384C302.954 108.571 302.888 108.729 302.758 108.86C302.627 108.981 302.473 109.042 302.296 109.042ZM304.388 109.042C304.257 109.042 304.15 109.005 304.066 108.93C303.982 108.846 303.94 108.739 303.94 108.608C303.94 108.421 304.005 108.267 304.136 108.146C304.266 108.015 304.42 107.95 304.598 107.95C304.728 107.95 304.836 107.992 304.92 108.076C305.004 108.151 305.046 108.253 305.046 108.384C305.046 108.571 304.98 108.729 304.85 108.86C304.719 108.981 304.565 109.042 304.388 109.042Z" fill="#8F8F8F"/>
<rect x="260" y="133" width="177" height="32" rx="5" fill="#F6C549"/>
<path d="M277.692 144.66L280.152 151.584L282.636 144.66H284.088L280.956 153H279.372L276.228 144.66H277.692ZM291.292 149.508C291.292 149.74 291.276 149.956 291.244 150.156H286.18C286.22 150.708 286.416 151.148 286.768 151.476C287.12 151.796 287.556 151.956 288.076 151.956C288.812 151.956 289.332 151.648 289.636 151.032H291.112C290.912 151.64 290.548 152.14 290.02 152.532C289.5 152.916 288.852 153.108 288.076 153.108C287.444 153.108 286.876 152.968 286.372 152.688C285.876 152.4 285.484 152 285.196 151.488C284.916 150.968 284.776 150.368 284.776 149.688C284.776 149.008 284.912 148.412 285.184 147.9C285.464 147.38 285.852 146.98 286.348 146.7C286.852 146.42 287.428 146.28 288.076 146.28C288.7 146.28 289.256 146.416 289.744 146.688C290.232 146.96 290.612 147.34 290.884 147.828C291.156 148.316 291.292 148.876 291.292 149.508ZM289.864 149.172C289.856 148.636 289.676 148.212 289.324 147.9C288.98 147.588 288.544 147.432 288.016 147.432C287.536 147.432 287.124 147.588 286.78 147.9C286.444 148.212 286.248 148.636 286.192 149.172H289.864ZM289.276 144.612L286.624 145.92V144.912L289.276 143.448V144.612ZM294.006 147.54C294.206 147.14 294.47 146.832 294.798 146.616C295.134 146.392 295.53 146.28 295.986 146.28V147.696H295.638C295.102 147.696 294.694 147.832 294.414 148.104C294.142 148.376 294.006 148.848 294.006 149.52V153H292.638V146.388H294.006V147.54ZM297.94 145.512C297.692 145.512 297.484 145.428 297.316 145.26C297.148 145.092 297.064 144.884 297.064 144.636C297.064 144.388 297.148 144.18 297.316 144.012C297.484 143.844 297.692 143.76 297.94 143.76C298.18 143.76 298.384 143.844 298.552 144.012C298.72 144.18 298.804 144.388 298.804 144.636C298.804 144.884 298.72 145.092 298.552 145.26C298.384 145.428 298.18 145.512 297.94 145.512ZM298.612 146.388V153H297.244V146.388H298.612ZM303.18 147.504H301.956V153H300.576V147.504H299.796V146.388H300.576V145.92C300.576 145.16 300.776 144.608 301.176 144.264C301.584 143.912 302.22 143.736 303.084 143.736V144.876C302.668 144.876 302.376 144.956 302.208 145.116C302.04 145.268 301.956 145.536 301.956 145.92V146.388H303.18V147.504ZM305.088 145.512C304.84 145.512 304.632 145.428 304.464 145.26C304.296 145.092 304.212 144.884 304.212 144.636C304.212 144.388 304.296 144.18 304.464 144.012C304.632 143.844 304.84 143.76 305.088 143.76C305.328 143.76 305.532 143.844 305.7 144.012C305.868 144.18 305.952 144.388 305.952 144.636C305.952 144.884 305.868 145.092 305.7 145.26C305.532 145.428 305.328 145.512 305.088 145.512ZM305.76 146.388V153H304.392V146.388H305.76ZM313.616 149.508C313.616 149.74 313.6 149.956 313.568 150.156H308.504C308.544 150.708 308.74 151.148 309.092 151.476C309.444 151.796 309.88 151.956 310.4 151.956C311.136 151.956 311.656 151.648 311.96 151.032H313.436C313.236 151.64 312.872 152.14 312.344 152.532C311.824 152.916 311.176 153.108 310.4 153.108C309.768 153.108 309.2 152.968 308.696 152.688C308.2 152.4 307.808 152 307.52 151.488C307.24 150.968 307.1 150.368 307.1 149.688C307.1 149.008 307.236 148.412 307.508 147.9C307.788 147.38 308.176 146.98 308.672 146.7C309.176 146.42 309.752 146.28 310.4 146.28C311.024 146.28 311.58 146.416 312.068 146.688C312.556 146.96 312.936 147.34 313.208 147.828C313.48 148.316 313.616 148.876 313.616 149.508ZM312.188 149.172C312.18 148.636 312 148.212 311.648 147.9C311.304 147.588 310.868 147.432 310.34 147.432C309.86 147.432 309.448 147.588 309.104 147.9C308.768 148.212 308.572 148.636 308.516 149.172H312.188ZM316.331 147.54C316.531 147.14 316.795 146.832 317.123 146.616C317.459 146.392 317.855 146.28 318.311 146.28V147.696H317.963C317.427 147.696 317.019 147.832 316.739 148.104C316.467 148.376 316.331 148.848 316.331 149.52V153H314.963V146.388H316.331V147.54ZM331.17 146.28C331.69 146.28 332.154 146.388 332.562 146.604C332.978 146.82 333.302 147.14 333.534 147.564C333.774 147.988 333.894 148.5 333.894 149.1V153H332.538V149.304C332.538 148.712 332.39 148.26 332.094 147.948C331.798 147.628 331.394 147.468 330.882 147.468C330.37 147.468 329.962 147.628 329.658 147.948C329.362 148.26 329.214 148.712 329.214 149.304V153H327.858V149.304C327.858 148.712 327.71 148.26 327.414 147.948C327.118 147.628 326.714 147.468 326.202 147.468C325.69 147.468 325.282 147.628 324.978 147.948C324.682 148.26 324.534 148.712 324.534 149.304V153H323.166V146.388H324.534V147.144C324.758 146.872 325.042 146.66 325.386 146.508C325.73 146.356 326.098 146.28 326.49 146.28C327.018 146.28 327.49 146.392 327.906 146.616C328.322 146.84 328.642 147.164 328.866 147.588C329.066 147.188 329.378 146.872 329.802 146.64C330.226 146.4 330.682 146.28 331.17 146.28ZM335.178 149.664C335.178 149 335.314 148.412 335.586 147.9C335.866 147.388 336.242 146.992 336.714 146.712C337.194 146.424 337.722 146.28 338.298 146.28C338.818 146.28 339.27 146.384 339.654 146.592C340.046 146.792 340.358 147.044 340.59 147.348V146.388H341.97V153H340.59V152.016C340.358 152.328 340.042 152.588 339.642 152.796C339.242 153.004 338.786 153.108 338.274 153.108C337.706 153.108 337.186 152.964 336.714 152.676C336.242 152.38 335.866 151.972 335.586 151.452C335.314 150.924 335.178 150.328 335.178 149.664ZM340.59 149.688C340.59 149.232 340.494 148.836 340.302 148.5C340.118 148.164 339.874 147.908 339.57 147.732C339.266 147.556 338.938 147.468 338.586 147.468C338.234 147.468 337.906 147.556 337.602 147.732C337.298 147.9 337.05 148.152 336.858 148.488C336.674 148.816 336.582 149.208 336.582 149.664C336.582 150.12 336.674 150.52 336.858 150.864C337.05 151.208 337.298 151.472 337.602 151.656C337.914 151.832 338.242 151.92 338.586 151.92C338.938 151.92 339.266 151.832 339.57 151.656C339.874 151.48 340.118 151.224 340.302 150.888C340.494 150.544 340.59 150.144 340.59 149.688ZM344.463 145.512C344.215 145.512 344.007 145.428 343.839 145.26C343.671 145.092 343.587 144.884 343.587 144.636C343.587 144.388 343.671 144.18 343.839 144.012C344.007 143.844 344.215 143.76 344.463 143.76C344.703 143.76 344.907 143.844 345.075 144.012C345.243 144.18 345.327 144.388 345.327 144.636C345.327 144.884 345.243 145.092 345.075 145.26C344.907 145.428 344.703 145.512 344.463 145.512ZM345.135 146.388V153H343.767V146.388H345.135ZM350.267 146.28C350.787 146.28 351.251 146.388 351.659 146.604C352.075 146.82 352.399 147.14 352.631 147.564C352.863 147.988 352.979 148.5 352.979 149.1V153H351.623V149.304C351.623 148.712 351.475 148.26 351.179 147.948C350.883 147.628 350.479 147.468 349.967 147.468C349.455 147.468 349.047 147.628 348.743 147.948C348.447 148.26 348.299 148.712 348.299 149.304V153H346.931V146.388H348.299V147.144C348.523 146.872 348.807 146.66 349.151 146.508C349.503 146.356 349.875 146.28 350.267 146.28ZM356.32 147.504V151.164C356.32 151.412 356.376 151.592 356.488 151.704C356.608 151.808 356.808 151.86 357.088 151.86H357.928V153H356.848C356.232 153 355.76 152.856 355.432 152.568C355.104 152.28 354.94 151.812 354.94 151.164V147.504H354.16V146.388H354.94V144.744H356.32V146.388H357.928V147.504H356.32ZM365.249 149.508C365.249 149.74 365.233 149.956 365.201 150.156H360.137C360.177 150.708 360.373 151.148 360.725 151.476C361.077 151.796 361.513 151.956 362.033 151.956C362.769 151.956 363.289 151.648 363.593 151.032H365.069C364.869 151.64 364.505 152.14 363.977 152.532C363.457 152.916 362.809 153.108 362.033 153.108C361.401 153.108 360.833 152.968 360.329 152.688C359.833 152.4 359.441 152 359.153 151.488C358.873 150.968 358.733 150.368 358.733 149.688C358.733 149.008 358.869 148.412 359.141 147.9C359.421 147.38 359.809 146.98 360.305 146.7C360.809 146.42 361.385 146.28 362.033 146.28C362.657 146.28 363.213 146.416 363.701 146.688C364.189 146.96 364.569 147.34 364.841 147.828C365.113 148.316 365.249 148.876 365.249 149.508ZM363.821 149.172C363.813 148.636 363.633 148.212 363.281 147.9C362.937 147.588 362.501 147.432 361.973 147.432C361.493 147.432 361.081 147.588 360.737 147.9C360.401 148.212 360.205 148.636 360.149 149.172H363.821ZM369.931 146.28C370.451 146.28 370.915 146.388 371.323 146.604C371.739 146.82 372.063 147.14 372.295 147.564C372.527 147.988 372.643 148.5 372.643 149.1V153H371.287V149.304C371.287 148.712 371.139 148.26 370.843 147.948C370.547 147.628 370.143 147.468 369.631 147.468C369.119 147.468 368.711 147.628 368.407 147.948C368.111 148.26 367.963 148.712 367.963 149.304V153H366.595V146.388H367.963V147.144C368.187 146.872 368.471 146.66 368.815 146.508C369.167 146.356 369.539 146.28 369.931 146.28ZM373.932 149.664C373.932 149 374.068 148.412 374.34 147.9C374.62 147.388 374.996 146.992 375.468 146.712C375.948 146.424 376.476 146.28 377.052 146.28C377.572 146.28 378.024 146.384 378.408 146.592C378.8 146.792 379.112 147.044 379.344 147.348V146.388H380.724V153H379.344V152.016C379.112 152.328 378.796 152.588 378.396 152.796C377.996 153.004 377.54 153.108 377.028 153.108C376.46 153.108 375.94 152.964 375.468 152.676C374.996 152.38 374.62 151.972 374.34 151.452C374.068 150.924 373.932 150.328 373.932 149.664ZM379.344 149.688C379.344 149.232 379.248 148.836 379.056 148.5C378.872 148.164 378.628 147.908 378.324 147.732C378.02 147.556 377.692 147.468 377.34 147.468C376.988 147.468 376.66 147.556 376.356 147.732C376.052 147.9 375.804 148.152 375.612 148.488C375.428 148.816 375.336 149.208 375.336 149.664C375.336 150.12 375.428 150.52 375.612 150.864C375.804 151.208 376.052 151.472 376.356 151.656C376.668 151.832 376.996 151.92 377.34 151.92C377.692 151.92 378.02 151.832 378.324 151.656C378.628 151.48 378.872 151.224 379.056 150.888C379.248 150.544 379.344 150.144 379.344 149.688ZM385.857 146.28C386.377 146.28 386.841 146.388 387.249 146.604C387.665 146.82 387.989 147.14 388.221 147.564C388.453 147.988 388.569 148.5 388.569 149.1V153H387.213V149.304C387.213 148.712 387.065 148.26 386.769 147.948C386.473 147.628 386.069 147.468 385.557 147.468C385.045 147.468 384.637 147.628 384.333 147.948C384.037 148.26 383.889 148.712 383.889 149.304V153H382.521V146.388H383.889V147.144C384.113 146.872 384.397 146.66 384.741 146.508C385.093 146.356 385.465 146.28 385.857 146.28ZM391.91 147.504V151.164C391.91 151.412 391.966 151.592 392.078 151.704C392.198 151.808 392.398 151.86 392.678 151.86H393.518V153H392.438C391.822 153 391.35 152.856 391.022 152.568C390.694 152.28 390.53 151.812 390.53 151.164V147.504H389.75V146.388H390.53V144.744H391.91V146.388H393.518V147.504H391.91Z" fill="#434343"/>
<g clip-path="url(#clip0_640_114)">
<path d="M413.195 153.83L418 149L413.195 144.17C413.152 144.113 413.096 144.066 413.033 144.032C412.97 143.999 412.901 143.979 412.829 143.974C412.758 143.97 412.686 143.98 412.619 144.006C412.552 144.032 412.491 144.071 412.441 144.122C412.391 144.173 412.352 144.234 412.328 144.302C412.303 144.369 412.293 144.441 412.299 144.512C412.304 144.584 412.325 144.653 412.36 144.716C412.395 144.778 412.442 144.833 412.5 144.875L416.095 148.5H406.53C406.397 148.5 406.27 148.553 406.176 148.647C406.083 148.74 406.03 148.868 406.03 149C406.03 149.133 406.083 149.26 406.176 149.354C406.27 149.448 406.397 149.5 406.53 149.5H416.095L412.5 153.125C412.407 153.219 412.354 153.347 412.355 153.479C412.355 153.612 412.408 153.739 412.502 153.833C412.597 153.926 412.724 153.978 412.857 153.978C412.989 153.978 413.117 153.924 413.21 153.83H413.195Z" fill="#434343"/>
</g>
<rect x="66" y="181" width="371" height="122" rx="10" fill="#EEEEEE"/>
<path d="M78 216.4H98V196.4H78V216.4ZM115.409 215H111.989L107.809 206.34L106.269 215H102.849L105.329 200.96H108.749L112.929 209.66L114.469 200.96H117.889L115.409 215ZM122.988 215.16C122.028 215.16 121.175 214.967 120.428 214.58C119.681 214.193 119.101 213.647 118.688 212.94C118.288 212.233 118.088 211.413 118.088 210.48C118.088 209.213 118.388 208.06 118.988 207.02C119.588 205.98 120.415 205.167 121.468 204.58C122.521 203.98 123.695 203.68 124.988 203.68C125.948 203.68 126.801 203.88 127.548 204.28C128.308 204.667 128.895 205.213 129.308 205.92C129.721 206.627 129.928 207.447 129.928 208.38C129.928 209.66 129.621 210.82 129.008 211.86C128.408 212.887 127.575 213.693 126.508 214.28C125.455 214.867 124.281 215.16 122.988 215.16ZM123.468 212.22C124.028 212.22 124.528 212.053 124.968 211.72C125.421 211.373 125.768 210.933 126.008 210.4C126.261 209.853 126.388 209.287 126.388 208.7C126.388 208.033 126.208 207.52 125.848 207.16C125.488 206.8 125.035 206.62 124.488 206.62C123.915 206.62 123.408 206.793 122.968 207.14C122.541 207.473 122.208 207.913 121.968 208.46C121.728 209.007 121.608 209.58 121.608 210.18C121.608 210.833 121.781 211.34 122.128 211.7C122.475 212.047 122.921 212.22 123.468 212.22ZM139.402 203.72C140.522 203.72 141.402 204.033 142.042 204.66C142.682 205.287 143.002 206.16 143.002 207.28C143.002 207.653 142.962 208.053 142.882 208.48L141.722 215H138.322L139.402 208.94C139.442 208.713 139.462 208.513 139.462 208.34C139.462 207.78 139.302 207.347 138.982 207.04C138.676 206.733 138.242 206.58 137.682 206.58C137.016 206.58 136.456 206.787 136.002 207.2C135.549 207.613 135.256 208.193 135.122 208.94V208.84L134.042 215H130.622L132.582 203.84H136.002L135.742 205.34C136.182 204.847 136.716 204.453 137.342 204.16C137.982 203.867 138.669 203.72 139.402 203.72ZM156.528 202.24C155.874 202.2 155.394 202.293 155.088 202.52C154.794 202.747 154.594 203.153 154.488 203.74L154.468 203.84H156.308L155.808 206.68H153.968L152.508 215H149.068L150.528 206.68H149.288L149.788 203.84H151.028L151.088 203.52C151.341 202.147 151.921 201.107 152.828 200.4C153.748 199.68 154.968 199.32 156.488 199.32C156.728 199.32 156.908 199.327 157.028 199.34L156.528 202.24ZM159.835 202.68C159.302 202.68 158.875 202.54 158.555 202.26C158.248 201.967 158.095 201.6 158.095 201.16C158.095 200.56 158.328 200.047 158.795 199.62C159.262 199.193 159.828 198.98 160.495 198.98C161.028 198.98 161.448 199.127 161.755 199.42C162.062 199.7 162.215 200.067 162.215 200.52C162.215 201.107 161.982 201.613 161.515 202.04C161.048 202.467 160.488 202.68 159.835 202.68ZM161.315 203.84L159.355 215H155.935L157.895 203.84H161.315ZM162.153 209.4C162.353 208.253 162.747 207.247 163.333 206.38C163.92 205.513 164.627 204.847 165.453 204.38C166.28 203.913 167.153 203.68 168.073 203.68C168.86 203.68 169.52 203.84 170.053 204.16C170.587 204.48 170.973 204.9 171.213 205.42L171.493 203.84H174.913L172.933 215H169.513L169.813 213.42C169.387 213.94 168.847 214.36 168.193 214.68C167.54 215 166.82 215.16 166.033 215.16C165.247 215.16 164.547 214.98 163.933 214.62C163.333 214.26 162.867 213.753 162.533 213.1C162.2 212.433 162.033 211.653 162.033 210.76C162.033 210.333 162.073 209.88 162.153 209.4ZM170.513 209.42C170.553 209.18 170.573 208.96 170.573 208.76C170.573 208.107 170.38 207.593 169.993 207.22C169.62 206.847 169.14 206.66 168.553 206.66C167.873 206.66 167.253 206.907 166.693 207.4C166.133 207.88 165.78 208.547 165.633 209.4C165.593 209.64 165.573 209.86 165.573 210.06C165.573 210.713 165.76 211.233 166.133 211.62C166.52 211.993 167 212.18 167.573 212.18C168.253 212.18 168.873 211.933 169.433 211.44C169.993 210.947 170.353 210.273 170.513 209.42ZM180.508 205.42C180.934 204.9 181.474 204.48 182.128 204.16C182.781 203.84 183.494 203.68 184.268 203.68C185.468 203.68 186.434 204.073 187.168 204.86C187.914 205.633 188.288 206.693 188.288 208.04C188.288 208.467 188.248 208.92 188.168 209.4C187.968 210.547 187.574 211.56 186.988 212.44C186.401 213.307 185.694 213.98 184.868 214.46C184.041 214.927 183.168 215.16 182.248 215.16C181.461 215.16 180.801 215.007 180.268 214.7C179.734 214.38 179.348 213.96 179.108 213.44L178.828 215H175.408L178.028 200.2H181.448L180.508 205.42ZM184.708 209.4C184.748 209.173 184.768 208.967 184.768 208.78C184.768 208.113 184.574 207.593 184.188 207.22C183.814 206.847 183.334 206.66 182.748 206.66C182.068 206.66 181.448 206.907 180.888 207.4C180.328 207.893 179.968 208.567 179.808 209.42C179.768 209.66 179.748 209.88 179.748 210.08C179.748 210.733 179.934 211.247 180.308 211.62C180.681 211.993 181.161 212.18 181.748 212.18C182.428 212.18 183.048 211.933 183.608 211.44C184.181 210.933 184.548 210.253 184.708 209.4ZM195.022 200.2L192.402 215H188.982L191.602 200.2H195.022ZM201.84 203.68C203.28 203.68 204.42 204.073 205.26 204.86C206.113 205.633 206.54 206.693 206.54 208.04C206.54 208.48 206.507 208.873 206.44 209.22C206.387 209.527 206.307 209.853 206.2 210.2H198.46C198.447 210.28 198.44 210.407 198.44 210.58C198.44 211.167 198.6 211.613 198.92 211.92C199.24 212.227 199.667 212.38 200.2 212.38C201.053 212.38 201.707 212.02 202.16 211.3H205.8C205.32 212.433 204.54 213.36 203.46 214.08C202.38 214.8 201.167 215.16 199.82 215.16C198.38 215.16 197.227 214.76 196.36 213.96C195.507 213.16 195.08 212.073 195.08 210.7C195.08 210.287 195.12 209.86 195.2 209.42C195.4 208.26 195.813 207.247 196.44 206.38C197.067 205.513 197.847 204.847 198.78 204.38C199.713 203.913 200.733 203.68 201.84 203.68ZM203.08 208.46C203.107 208.273 203.12 208.147 203.12 208.08C203.12 207.547 202.953 207.14 202.62 206.86C202.287 206.567 201.847 206.42 201.3 206.42C200.713 206.42 200.193 206.6 199.74 206.96C199.3 207.307 198.98 207.807 198.78 208.46H203.08Z" fill="#434343"/>
<rect x="78" y="243" width="347" height="6" rx="3" fill="#D9D9D9"/>
<rect x="78" y="257" width="347" height="6" rx="3" fill="#D9D9D9"/>
<rect x="78" y="271" width="347" height="6" rx="3" fill="#D9D9D9"/>
<rect x="78" y="285" width="347" height="6" rx="3" fill="#D9D9D9"/>
<g filter="url(#filter1_d_640_114)">
<path fill-rule="evenodd" clip-rule="evenodd" d="M445.389 158.198L437.74 160.634C437.196 160.807 436.809 161.196 436.636 161.738L434.2 169.387C434.084 169.749 433.769 169.987 433.389 170C433.007 170.011 432.679 169.795 432.542 169.44L425.062 150.202C424.784 149.487 425.487 148.785 426.202 149.062L445.44 156.542C446.212 156.84 446.178 157.947 445.388 158.198L445.389 158.198Z" fill="#3A89FF"/>
<path d="M437.892 161.11L445.54 158.674L445.54 158.675C446.777 158.28 446.834 156.545 445.62 156.075C445.62 156.075 445.62 156.075 445.62 156.075L426.384 148.596L426.383 148.596C425.264 148.162 424.159 149.261 424.596 150.383L432.076 169.621C432.076 169.621 432.076 169.621 432.076 169.621C432.291 170.175 432.812 170.516 433.403 170.499L433.405 170.499C433.996 170.48 434.496 170.103 434.676 169.539L434.676 169.539L437.112 161.89C437.236 161.502 437.503 161.234 437.892 161.11L437.892 161.11Z" stroke="white"/>
</g>
<g filter="url(#filter2_d_640_114)">
<rect x="149" y="277" width="371" height="62" rx="10" fill="#FAFAFA" shape-rendering="crispEdges"/>
<path d="M161 316.4H181V296.4H161V316.4ZM191.429 315.14C189.909 315.14 188.669 314.813 187.709 314.16C186.762 313.493 186.289 312.553 186.289 311.34C186.289 311.22 186.302 311.04 186.329 310.8H189.889C189.849 311.307 189.969 311.707 190.249 312C190.529 312.293 190.956 312.44 191.529 312.44C192.049 312.44 192.456 312.327 192.749 312.1C193.056 311.873 193.209 311.553 193.209 311.14C193.209 310.713 193.016 310.367 192.629 310.1C192.256 309.833 191.669 309.533 190.869 309.2C190.096 308.88 189.462 308.58 188.969 308.3C188.489 308.007 188.069 307.613 187.709 307.12C187.349 306.627 187.169 306.007 187.169 305.26C187.156 304.34 187.382 303.54 187.849 302.86C188.316 302.18 188.962 301.66 189.789 301.3C190.616 300.94 191.562 300.76 192.629 300.76C193.589 300.76 194.442 300.913 195.189 301.22C195.936 301.513 196.516 301.947 196.929 302.52C197.342 303.08 197.549 303.747 197.549 304.52C197.549 304.72 197.542 304.867 197.529 304.96H193.889C193.902 304.907 193.909 304.827 193.909 304.72C193.909 304.347 193.776 304.047 193.509 303.82C193.256 303.58 192.902 303.46 192.449 303.46C191.969 303.46 191.576 303.58 191.269 303.82C190.976 304.047 190.829 304.36 190.829 304.76C190.829 305.16 191.016 305.5 191.389 305.78C191.762 306.047 192.342 306.36 193.129 306.72C193.916 307.08 194.556 307.413 195.049 307.72C195.556 308.027 195.989 308.44 196.349 308.96C196.709 309.467 196.889 310.093 196.889 310.84C196.889 311.667 196.669 312.407 196.229 313.06C195.789 313.713 195.156 314.227 194.329 314.6C193.502 314.96 192.536 315.14 191.429 315.14ZM203.39 315.16C202.43 315.16 201.577 314.967 200.83 314.58C200.084 314.193 199.504 313.647 199.09 312.94C198.69 312.233 198.49 311.413 198.49 310.48C198.49 309.213 198.79 308.06 199.39 307.02C199.99 305.98 200.817 305.167 201.87 304.58C202.924 303.98 204.097 303.68 205.39 303.68C206.35 303.68 207.204 303.88 207.95 304.28C208.71 304.667 209.297 305.213 209.71 305.92C210.124 306.627 210.33 307.447 210.33 308.38C210.33 309.66 210.024 310.82 209.41 311.86C208.81 312.887 207.977 313.693 206.91 314.28C205.857 314.867 204.684 315.16 203.39 315.16ZM203.87 312.22C204.43 312.22 204.93 312.053 205.37 311.72C205.824 311.373 206.17 310.933 206.41 310.4C206.664 309.853 206.79 309.287 206.79 308.7C206.79 308.033 206.61 307.52 206.25 307.16C205.89 306.8 205.437 306.62 204.89 306.62C204.317 306.62 203.81 306.793 203.37 307.14C202.944 307.473 202.61 307.913 202.37 308.46C202.13 309.007 202.01 309.58 202.01 310.18C202.01 310.833 202.184 311.34 202.53 311.7C202.877 312.047 203.324 312.22 203.87 312.22ZM224.005 303.84L222.045 315H218.625L218.885 313.48C218.445 313.973 217.905 314.373 217.265 314.68C216.638 314.973 215.965 315.12 215.245 315.12C214.125 315.12 213.245 314.807 212.605 314.18C211.965 313.54 211.645 312.653 211.645 311.52C211.645 311.093 211.678 310.707 211.745 310.36L212.905 303.84H216.305L215.245 309.9C215.205 310.113 215.185 310.32 215.185 310.52C215.185 311.08 215.338 311.513 215.645 311.82C215.965 312.113 216.405 312.26 216.965 312.26C217.605 312.26 218.145 312.073 218.585 311.7C219.038 311.313 219.338 310.767 219.485 310.06L220.585 303.84H224.005ZM229.521 305.86C230.041 305.193 230.635 304.673 231.301 304.3C231.981 303.913 232.688 303.72 233.421 303.72L232.781 307.34H231.841C230.988 307.34 230.315 307.527 229.821 307.9C229.328 308.26 229.001 308.9 228.841 309.82L227.921 315H224.501L226.461 303.84H229.881L229.521 305.86ZM233.376 309.42C233.576 308.26 233.989 307.247 234.616 306.38C235.243 305.513 236.016 304.847 236.936 304.38C237.869 303.913 238.883 303.68 239.976 303.68C241.376 303.68 242.483 304.047 243.296 304.78C244.109 305.513 244.543 306.547 244.596 307.88H240.956C240.809 307.027 240.289 306.6 239.396 306.6C238.769 306.6 238.229 306.847 237.776 307.34C237.323 307.82 237.016 308.513 236.856 309.42C236.803 309.7 236.776 309.993 236.776 310.3C236.776 310.927 236.923 311.407 237.216 311.74C237.509 312.073 237.909 312.24 238.416 312.24C239.296 312.24 239.956 311.813 240.396 310.96H244.056C243.536 312.267 242.736 313.293 241.656 314.04C240.576 314.787 239.343 315.16 237.956 315.16C236.516 315.16 235.369 314.767 234.516 313.98C233.676 313.18 233.256 312.093 233.256 310.72C233.256 310.307 233.296 309.873 233.376 309.42ZM252.125 303.68C253.565 303.68 254.705 304.073 255.545 304.86C256.399 305.633 256.825 306.693 256.825 308.04C256.825 308.48 256.792 308.873 256.725 309.22C256.672 309.527 256.592 309.853 256.485 310.2H248.745C248.732 310.28 248.725 310.407 248.725 310.58C248.725 311.167 248.885 311.613 249.205 311.92C249.525 312.227 249.952 312.38 250.485 312.38C251.339 312.38 251.992 312.02 252.445 311.3H256.085C255.605 312.433 254.825 313.36 253.745 314.08C252.665 314.8 251.452 315.16 250.105 315.16C248.665 315.16 247.512 314.76 246.645 313.96C245.792 313.16 245.365 312.073 245.365 310.7C245.365 310.287 245.405 309.86 245.485 309.42C245.685 308.26 246.099 307.247 246.725 306.38C247.352 305.513 248.132 304.847 249.065 304.38C249.999 303.913 251.019 303.68 252.125 303.68ZM253.365 308.46C253.392 308.273 253.405 308.147 253.405 308.08C253.405 307.547 253.239 307.14 252.905 306.86C252.572 306.567 252.132 306.42 251.585 306.42C250.999 306.42 250.479 306.6 250.025 306.96C249.585 307.307 249.265 307.807 249.065 308.46H253.365ZM262.13 315.16C261.25 315.16 260.456 315.02 259.75 314.74C259.056 314.46 258.51 314.073 258.11 313.58C257.71 313.073 257.51 312.493 257.51 311.84C257.51 311.747 257.523 311.58 257.55 311.34H260.85C260.823 311.753 260.943 312.087 261.21 312.34C261.49 312.58 261.883 312.7 262.39 312.7C262.816 312.7 263.17 312.62 263.45 312.46C263.73 312.3 263.87 312.073 263.87 311.78C263.87 311.5 263.716 311.28 263.41 311.12C263.116 310.947 262.623 310.74 261.93 310.5C261.21 310.26 260.603 310.027 260.11 309.8C259.63 309.56 259.216 309.22 258.87 308.78C258.523 308.34 258.35 307.787 258.35 307.12C258.35 306.467 258.543 305.88 258.93 305.36C259.316 304.827 259.856 304.413 260.55 304.12C261.256 303.827 262.07 303.68 262.99 303.68C263.91 303.68 264.71 303.833 265.39 304.14C266.07 304.433 266.596 304.847 266.97 305.38C267.343 305.913 267.53 306.513 267.53 307.18L267.51 307.48H264.41C264.436 307.08 264.316 306.76 264.05 306.52C263.783 306.28 263.403 306.16 262.91 306.16C262.523 306.16 262.203 306.24 261.95 306.4C261.71 306.56 261.59 306.78 261.59 307.06C261.59 307.353 261.75 307.6 262.07 307.8C262.403 307.987 262.916 308.2 263.61 308.44C264.33 308.68 264.923 308.92 265.39 309.16C265.87 309.387 266.276 309.713 266.61 310.14C266.956 310.553 267.13 311.073 267.13 311.7C267.13 312.42 266.91 313.04 266.47 313.56C266.043 314.08 265.45 314.48 264.69 314.76C263.943 315.027 263.09 315.16 262.13 315.16Z" fill="#434343"/>
<rect x="280" y="303" width="228" height="10" rx="5" fill="#E7E7E7"/>
</g>
</g>
<defs>
<filter id="filter0_d_640_114" x="0" y="22" width="570" height="371" filterUnits="userSpaceOnUse" color-interpolation-filters="sRGB">
<feFlood flood-opacity="0" result="BackgroundImageFix"/>
<feColorMatrix in="SourceAlpha" type="matrix" values="0 0 0 0 0 0 0 0 0 0 0 0 0 0 0 0 0 0 127 0" result="hardAlpha"/>
<feOffset dy="4"/>
<feGaussianBlur stdDeviation="25"/>
<feComposite in2="hardAlpha" operator="out"/>
<feColorMatrix type="matrix" values="0 0 0 0 0 0 0 0 0 0 0 0 0 0 0 0 0 0 0.25 0"/>
<feBlend mode="normal" in2="BackgroundImageFix" result="effect1_dropShadow_640_114"/>
<feBlend mode="normal" in="SourceGraphic" in2="effect1_dropShadow_640_114" result="shape"/>
</filter>
<filter id="filter1_d_640_114" x="419.997" y="147.998" width="31.0027" height="31.0024" filterUnits="userSpaceOnUse" color-interpolation-filters="sRGB">
<feFlood flood-opacity="0" result="BackgroundImageFix"/>
<feColorMatrix in="SourceAlpha" type="matrix" values="0 0 0 0 0 0 0 0 0 0 0 0 0 0 0 0 0 0 127 0" result="hardAlpha"/>
<feOffset dy="4"/>
<feGaussianBlur stdDeviation="2"/>
<feComposite in2="hardAlpha" operator="out"/>
<feColorMatrix type="matrix" values="0 0 0 0 0 0 0 0 0 0 0 0 0 0 0 0 0 0 0.25 0"/>
<feBlend mode="normal" in2="BackgroundImageFix" result="effect1_dropShadow_640_114"/>
<feBlend mode="normal" in="SourceGraphic" in2="effect1_dropShadow_640_114" result="shape"/>
</filter>
<filter id="filter2_d_640_114" x="99" y="231" width="471" height="162" filterUnits="userSpaceOnUse" color-interpolation-filters="sRGB">
<feFlood flood-opacity="0" result="BackgroundImageFix"/>
<feColorMatrix in="SourceAlpha" type="matrix" values="0 0 0 0 0 0 0 0 0 0 0 0 0 0 0 0 0 0 127 0" result="hardAlpha"/>
<feOffset dy="4"/>
<feGaussianBlur stdDeviation="25"/>
<feComposite in2="hardAlpha" operator="out"/>
<feColorMatrix type="matrix" values="0 0 0 0 0 0 0 0 0 0 0 0 0 0 0 0 0 0 0.25 0"/>
<feBlend mode="normal" in2="BackgroundImageFix" result="effect1_dropShadow_640_114"/>
<feBlend mode="normal" in="SourceGraphic" in2="effect1_dropShadow_640_114" result="shape"/>
</filter>
<clipPath id="clip0_640_114">
<rect width="18" height="18" fill="white" transform="matrix(0 1 -1 0 421 140)"/>
</clipPath>
</defs>
</svg>
